<svg xmlns="http://www.w3.org/2000/svg" version="1.1" xmlns:xlink="http://www.w3.org/1999/xlink" xmlns:svgjs="http://svgjs.com/svgjs" width="512" height="512" x="0" y="0" viewBox="0 0 512.032 512.032" style="enable-background:new 0 0 512 512" xml:space="preserve" class=""><g><path d="M51.057 397.25a60.076 60.076 0 0 0-17.81 12.32c-23.513 23.534-23.425 61.415 0 84.86 23.513 23.513 61.425 23.425 84.85 0a60.204 60.204 0 0 0 12.32-17.81c-14.17-15.41-22.4-34.97-23.52-55.86-20.89-1.13-40.44-9.35-55.84-23.51zM69.457 288.51c-23.47 23.47-23.46 61.38 0 84.85 23.41 23.4 61.48 23.38 84.86 0-15.83-15.83-25.05-36.51-26.24-58.67-22.17-1.2-42.83-10.4-58.62-26.18z" fill="#282828" data-original="#282828" class=""></path><path d="M154.317 373.36c-23.41 23.4-23.41 61.45 0 84.85 23.4 23.4 61.47 23.38 84.85 0-15.79-15.78-24.98-36.43-26.19-58.61-22.16-1.2-42.84-10.41-58.66-26.24zM175.528 267.294c23.393-23.394 23.393-61.459 0-84.853-23.404-23.404-61.451-23.402-84.854 0-23.406 23.403-23.404 61.449 0 84.853s61.451 23.403 84.854 0zM483.117 171.83l-.06-.06c-30.89-29.541-70.568-36.558-104.829-26.099 17.876-9.896 33.978-33.133 33.978-61.513 0-33.091-20.541-62.817-34.099-78.833-6.072-7.173-17.145-7.09-23.087.191-13.109 16.063-32.813 45.689-32.813 78.642 0 38.995 28.93 61.886 44.599 65.737a104.93 104.93 0 0 0-32.177 21.935l-35.58 35.58c1.073-16.743-4.854-33.583-17.45-46.18-23.406-23.407-61.455-23.405-84.86 0 16.27 16.27 25 37.27 26.18 58.61 22.161 1.189 42.85 10.41 58.68 26.24 15.748 15.747 25.035 36.404 26.23 58.67 22.17 1.2 42.83 10.4 58.62 26.18 23.407-23.407 23.404-61.446 0-84.85-12.664-12.664-29.549-18.543-46.16-17.47l35.55-35.56c29.24-29.24 76.83-29.24 106.07 0 2.83 2.83 4.39 6.6 4.39 10.6 0 8.3-6.71 15-15 15s-15-6.7-15-15c0-8.28-6.71-15-15-15-8.28 0-15 6.72-15 15 0 24.88 20.13 45 45 45 26.87 0 45.09-22.22 45.09-45.43-.002-10.99-4.092-22.21-13.272-31.39z" fill="#282828" data-original="#282828" class=""></path><path d="M175.529 352.147c23.465 23.468 61.377 23.473 84.852 0 23.468-23.467 23.474-61.379 0-84.853-23.469-23.468-61.38-23.475-84.853 0-23.471 23.47-23.473 61.38.001 84.853z" fill="#282828" data-original="#000000" class=""></path><path d="M260.38 352.147c-23.406 23.404-23.403 61.45 0 84.853 23.404 23.405 61.451 23.403 84.853 0 23.406-23.403 23.404-61.449 0-84.853-23.403-23.403-61.45-23.403-84.853 0z" fill="#282828" data-original="#000000" class=""></path></g></svg>