<svg xmlns="http://www.w3.org/2000/svg" version="1.1" xmlns:xlink="http://www.w3.org/1999/xlink" xmlns:svgjs="http://svgjs.com/svgjs" width="45" height="45" x="0" y="0" viewBox="0 0 100 100" style="enable-background:new 0 0 512 512" xml:space="preserve" class=""><g><path d="M30.31 96.47h39.38c3.6 0 6.53-2.93 6.53-6.53V10.06c0-3.6-2.93-6.53-6.53-6.53H30.31c-3.6 0-6.53 2.93-6.53 6.53v79.87c0 3.61 2.93 6.54 6.53 6.54zm-3.53-86.41c0-1.95 1.59-3.53 3.53-3.53h39.38a3.53 3.53 0 0 1 3.53 3.53v79.87c0 1.95-1.59 3.53-3.53 3.53H30.31a3.53 3.53 0 0 1-3.53-3.53z" fill="#C4C4C4" data-original="#000000" class=""></path><path d="M33.65 38.69h5.31c2.19 0 3.96-1.78 3.96-3.96V13.96c0-2.19-1.78-3.96-3.96-3.96h-5.31c-2.19 0-3.96 1.78-3.96 3.96v20.76c0 2.19 1.77 3.97 3.96 3.97zm-.96-24.73c0-.53.43-.96.96-.96h5.31c.53 0 .96.43.96.96v20.76c0 .53-.43.96-.96.96h-5.31a.96.96 0 0 1-.96-.96zM44.01 91.19H54.1c.83 0 1.5-.67 1.5-1.5s-.67-1.5-1.5-1.5H44.01c-.83 0-1.5.67-1.5 1.5s.67 1.5 1.5 1.5z" fill="#C4C4C4" data-original="#000000" class=""></path><path d="M36.33 19.09c.83 0 1.5-.67 1.5-1.5s-.67-1.5-1.5-1.5h-.01c-.83 0-1.49.67-1.49 1.5s.67 1.5 1.5 1.5z" fill="#C4C4C4" data-original="#000000" class=""></path></g></svg>